<svg xmlns="http://www.w3.org/2000/svg" xmlns:xlink="http://www.w3.org/1999/xlink" viewBox="0 0 366.24 62"><defs><style>.cls-1{fill:#504f51;}.cls-2{fill:url(#linear-gradient);}.cls-3{fill:url(#linear-gradient-2);}.cls-4{fill:url(#linear-gradient-3);}</style><linearGradient id="linear-gradient" x1="40.08" y1="25.79" x2="66.48" y2="10.65" gradientUnits="userSpaceOnUse"><stop offset="0" stop-color="#cd190f"/><stop offset="1" stop-color="#831216"/></linearGradient><linearGradient id="linear-gradient-2" x1="3.2" y1="55.67" x2="19.37" y2="41.32" gradientUnits="userSpaceOnUse"><stop offset="0" stop-color="#006c33"/><stop offset="0.7" stop-color="#089149"/></linearGradient><linearGradient id="linear-gradient-3" x1="6.24" y1="48.4" x2="58.78" y2="13.48" gradientUnits="userSpaceOnUse"><stop offset="0" stop-color="#007e38"/><stop offset="0.04" stop-color="#318b35"/><stop offset="0.07" stop-color="#5c9632"/><stop offset="0.12" stop-color="#83a130"/><stop offset="0.16" stop-color="#a3a92e"/><stop offset="0.21" stop-color="#bdb02d"/><stop offset="0.26" stop-color="#d2b52c"/><stop offset="0.31" stop-color="#e0b92b"/><stop offset="0.38" stop-color="#e8bb2a"/><stop offset="0.5" stop-color="#ebbc2a"/><stop offset="0.56" stop-color="#eab729"/><stop offset="0.65" stop-color="#e7a727"/><stop offset="0.74" stop-color="#e28e22"/><stop offset="0.83" stop-color="#dc6a1c"/><stop offset="0.93" stop-color="#d43d15"/><stop offset="1" stop-color="#cd190f"/></linearGradient></defs><title>Ativo 1</title><g id="Camada_2" data-name="Camada 2"><g id="Layer_1" data-name="Layer 1"><polygon class="cls-1" points="78.19 62 77.28 62 77.28 0 78.19 0.04 78.19 62"/><path class="cls-2" d="M31,0A31,31,0,0,0,1.66,21c1.9-.84,17-12.63,32.67-3.41,24.2,13.71,10.24,38.64,9.16,41.78A31,31,0,0,0,31,0Z"/><path class="cls-3" d="M31,62A31,31,0,0,0,60.32,41c-1.9.84-24.27,15.46-40.43,1.82-7.18-6.07-7.47-16.2-5.89-26.2,1.31-8.29,3.4-10.86,4.47-14A31,31,0,0,0,31,62Z"/><path class="cls-4" d="M16,21C10,28.44,10.43,38,5.47,38.76,3.54,39.07.35,37.37,0,32.14A31,31,0,0,0,22.39,60.78c-2.94-4.06-4-6.07-4-11.49,0-13.58,10.87-23.59,24-24.79,10.24-.93,15.15,1.32,19.57,7.56,0-.33,0-.72,0-1.06a30.69,30.69,0,0,0-9.2-22C50.81,7,30.45,3.09,16,21Z"/><path class="cls-1" d="M111.28,52.38a15,15,0,0,1-8.74-2.58v.05l-1.49-1.16c-3-2.45-3.85-6.56-4.1-8.21l-.13-.84,7.07-1.54.18.91c.2,1,1.5,6.06,7.21,6.06A7.41,7.41,0,0,0,117,42.65a6.55,6.55,0,0,0,1.12-3.14,3.51,3.51,0,0,0-.58-2.29l-.07-.07a48.64,48.64,0,0,0-5.36-4.09,8.3,8.3,0,0,1-2.32-1.73c-4.71-3.11-7.86-5.38-9-7a11.67,11.67,0,0,1-2-6A11.9,11.9,0,0,1,102,10.41c2.93-3,6-3.61,10-3.61a13.86,13.86,0,0,1,8.1,2.8,14.83,14.83,0,0,1,4.84,8.59l.17.88L118,20.6l-.18-.91c-.61-3-3.27-5.6-5.82-5.6-3,0-3.87.41-4.74,1.33A4.42,4.42,0,0,0,106,18.2a6,6,0,0,0,.74,1.82,58.6,58.6,0,0,0,5.58,4.2c.88.61,1.74,1.2,2.57,1.82,3.15,2.23,6.64,4.76,8,6.42a11.18,11.18,0,0,1,2.36,7.39,12.66,12.66,0,0,1-2.67,7.41A15.12,15.12,0,0,1,111.28,52.38Z"/><path class="cls-1" d="M162.67,52.15h-6.35l-19-30v30h-7.23v-45h6.35l18.81,29.65V7.18h7.38Z"/><path class="cls-1" d="M181.59,52.38a15,15,0,0,1-8.74-2.58v.05l-1.49-1.16c-3-2.45-3.85-6.56-4.1-8.21l-.13-.84,7.07-1.54.18.91c.2,1,1.5,6.06,7.21,6.06a7.41,7.41,0,0,0,5.69-2.43,6.55,6.55,0,0,0,1.12-3.14,3.51,3.51,0,0,0-.58-2.29l-.07-.07a48.64,48.64,0,0,0-5.36-4.09,8.3,8.3,0,0,1-2.32-1.73c-4.71-3.11-7.86-5.38-9-7a11.67,11.67,0,0,1-2-6,11.9,11.9,0,0,1,3.25-7.87c2.93-3,6-3.61,10-3.61a13.86,13.86,0,0,1,8.1,2.8,14.83,14.83,0,0,1,4.84,8.59l.17.88-7.1,1.54-.18-.91c-.61-3-3.27-5.6-5.82-5.6-3,0-3.87.41-4.74,1.33a4.42,4.42,0,0,0-1.22,2.77,6,6,0,0,0,.74,1.82,58.6,58.6,0,0,0,5.58,4.2c.88.61,1.74,1.2,2.57,1.82,3.15,2.23,6.64,4.76,8,6.42a11.18,11.18,0,0,1,2.36,7.39,12.66,12.66,0,0,1-2.67,7.41A15.12,15.12,0,0,1,181.59,52.38Z"/><path class="cls-1" d="M211.87,13.24c0-2-.94-3.22-2.92-3.22a2.84,2.84,0,0,0-3.08,2.92c0,4.86,7.9,2.19,7.9,7.92,0,3.15-2,4.77-4.93,4.77s-4.75-1.64-4.75-4.84v-.48h1.46v.62c0,2.08,1.1,3.47,3.24,3.47s3.52-1,3.52-3.31c0-4.84-7.9-2.08-7.9-8,0-2.56,1.67-4.31,4.5-4.31,3,0,4.43,1.55,4.43,4.45Z"/><path class="cls-1" d="M215.68,9.06h8.08v1.23h-6.62v5.94h6.19v1.23h-6.19v6.67H224v1.23h-8.29Z"/><path class="cls-1" d="M225.81,9.06h4.86c2.72,0,4.22,1.55,4.22,4.09,0,2-.78,3.72-2.94,4.13v0c2,.18,2.72,1.35,2.78,3.86l0,1.78a3.59,3.59,0,0,0,.69,2.4h-1.71a4.92,4.92,0,0,1-.43-2.28l0-1.37c-.09-2.88-.62-3.79-3.24-3.79h-2.76v7.44h-1.46Zm1.46,7.62h2.51c2.31,0,3.65-1.05,3.65-3.2,0-2-.84-3.2-3.49-3.2h-2.67Z"/><path class="cls-1" d="M236,9.06h1.55l3.63,14.75h0l3.63-14.75h1.55l-4.29,16.3H240.3Z"/><path class="cls-1" d="M247.85,9.06h1.46v16.3h-1.46Z"/><path class="cls-1" d="M256.78,25.63c-3.2-.16-5-2.74-5-8.42,0-5.84,1.87-8.42,5.2-8.42s4.68,2.35,4.68,5h-1.46c0-2.21-1.12-3.79-3.22-3.79-2.33,0-3.74,1.92-3.74,7.19S254.7,24.4,257,24.4c2.05,0,3.22-1.76,3.38-4.56h1.46c-.18,3.45-1.69,5.5-4.25,5.75l-.8,1,0,0a2,2,0,0,1,.78-.11,1.65,1.65,0,0,1,1.76,1.53C259.4,29.35,258,30,257,30a5.24,5.24,0,0,1-2-.46l.27-.71a3.18,3.18,0,0,0,1.37.34c1.1,0,1.58-.46,1.58-1s-.59-.82-1.21-.82a1.83,1.83,0,0,0-1,.23l-.3-.39Z"/><path class="cls-1" d="M268.87,8.79c3.33,0,5.2,2.58,5.2,8.42s-1.87,8.42-5.2,8.42-5.2-2.58-5.2-8.42S265.54,8.79,268.87,8.79Zm0,15.61c2.33,0,3.74-1.92,3.74-7.19S271.2,10,268.87,10s-3.74,1.92-3.74,7.19S266.54,24.4,268.87,24.4Z"/><path class="cls-1" d="M282,9.06h2l6.23,14.2h0V9.06h1.46v16.3h-2l-6.23-14.2h0v14.2H282Z"/><path class="cls-1" d="M297.74,9.06h1.83l4.82,16.3h-1.55l-1.32-4.75H295.8l-1.32,4.75h-1.55Zm3.45,10.32-2.51-9.18h0l-2.51,9.18Z"/><path class="cls-1" d="M315.54,19.83c-.21,3.72-1.92,5.8-4.84,5.8-3.33,0-5.2-2.58-5.2-8.42s1.87-8.42,5.2-8.42,4.68,2.35,4.68,5h-1.46c0-2.21-1.12-3.79-3.22-3.79-2.33,0-3.74,1.92-3.74,7.19s1.42,7.19,3.74,7.19c2.05,0,3.22-1.76,3.38-4.56Z"/><path class="cls-1" d="M317.57,9.06H319v16.3h-1.46Z"/><path class="cls-1" d="M326.74,8.79c3.33,0,5.2,2.58,5.2,8.42s-1.87,8.42-5.2,8.42-5.2-2.58-5.2-8.42S323.41,8.79,326.74,8.79Zm0,15.61c2.33,0,3.74-1.92,3.74-7.19S329.07,10,326.74,10,323,11.94,323,17.21,324.41,24.4,326.74,24.4Z"/><path class="cls-1" d="M334.36,9.06h2l6.23,14.2h0V9.06h1.46v16.3h-2l-6.23-14.2h0v14.2h-1.46Z"/><path class="cls-1" d="M350.13,9.06H352l4.82,16.3h-1.55l-1.32-4.75h-5.71l-1.32,4.75h-1.55Zm3.45,10.32-2.51-9.18h0l-2.51,9.18Z"/><path class="cls-1" d="M358,9.06h1.46V24.13h6.76v1.23H358Z"/><path class="cls-1" d="M204.72,35.91h3.93c4.75,0,5.91,2.83,5.91,8.15s-1.16,8.15-5.91,8.15h-3.93ZM206.18,51h2.37c3.2,0,4.54-1.6,4.54-6.89s-1.35-6.94-4.54-6.94h-2.37Z"/><path class="cls-1" d="M217,35.91h8.08v1.23h-6.62v5.94h6.19v1.23h-6.19V51h6.83v1.23H217Z"/><path class="cls-1" d="M239.73,40.09c0-2-.94-3.22-2.92-3.22a2.84,2.84,0,0,0-3.08,2.92c0,4.86,7.9,2.19,7.9,7.92,0,3.15-2,4.77-4.93,4.77s-4.75-1.64-4.75-4.84v-.48h1.46v.62c0,2.08,1.1,3.47,3.24,3.47s3.52-1,3.52-3.31c0-4.84-7.9-2.08-7.9-8,0-2.56,1.67-4.31,4.5-4.31,3,0,4.43,1.55,4.43,4.45Z"/><path class="cls-1" d="M247.06,35.91h1.83l4.82,16.3h-1.55l-1.32-4.75h-5.71l-1.32,4.75h-1.55Zm3.45,10.32L248,37h0l-2.51,9.18Z"/><path class="cls-1" d="M254.86,35.91h1.46V47.62c0,2.44,1.05,3.63,3.2,3.63s3.2-1.19,3.2-3.63V35.91h1.46V47.64c0,3.42-1.67,4.84-4.66,4.84s-4.66-1.42-4.66-4.84Zm7-4-2.24,3.22h-1.1l1.71-3.22Z"/><path class="cls-1" d="M266.5,35.91h3.93c4.75,0,5.91,2.83,5.91,8.15s-1.16,8.15-5.91,8.15H266.5ZM268,51h2.37c3.2,0,4.54-1.6,4.54-6.89s-1.35-6.94-4.54-6.94H268Z"/><path class="cls-1" d="M278.75,35.91h8.08v1.23h-6.62v5.94h6.19v1.23h-6.19V51H287v1.23h-8.29Z"/></g></g></svg>