<svg xmlns="http://www.w3.org/2000/svg" viewBox="0 0 163.06 60"><defs><style>.cls-1{fill:none;stroke:#3c3c3c;stroke-width:2px;}.cls-2{fill:#386432;}.cls-3{fill:#c4272a;}.cls-4{fill:#82b446;}.cls-5{fill:#ebaa28;}.cls-6,.cls-7{fill:#fcf539;}.cls-7,.cls-9{fill-rule:evenodd;}.cls-8,.cls-9{fill:#fff;}.cls-10{fill:#284682;}.cls-11{fill:#3c3c3c;}</style></defs><title>Ativo 3</title><g id="Camada_2" data-name="Camada 2"><g id="Camada_1-2" data-name="Camada 1"><line class="cls-1" x1="43.41" y1="44.31" x2="163.05" y2="44.31"/><path class="cls-2" d="M13.75,0C4.63,2.94,0,10.69,0,22.65V40.79a19,19,0,0,1,13.75-15Z"/><path class="cls-3" d="M14.77,3.43A62.07,62.07,0,0,1,31.6.24s0,8.26-.29,15c-.83,21.19-19.77,10.3-29,21.57,1.86-4.88,8.19-8.35,12.52-9.2Z"/><path class="cls-2" d="M12.21,33.69S2.14,34.5,1.28,40.24c-.68,4.5,10.92,4.62,10.92,4.62Z"/><path class="cls-4" d="M.43,16.79a23,23,0,0,1,13.32-13V0C6.22,2.43,1.76,8.15.43,16.79Z"/><path class="cls-5" d="M6.58,11.52h.53l.1,0h0l.11,0h0l.39.11h.1l.12,0h.11l.05,0h.14l.07,0h0l.05,0h0l0,0h0l.06,0v-.52l-.22,0-.2,0h0l-.06,0H7.91l-.42-.13H7.37l.05,0h.06l.06,0h0l.12,0h0l.06,0h0c.26-.08.54-.15.84-.22v-.25h0v-.33l-.43.43a9.08,9.08,0,0,0-.92.29,8.87,8.87,0,0,1,6.41-3.46l0-.24a9.08,9.08,0,0,0-6.82,3.81.54.54,0,0,0-.29.08h0l-.13.24a.25.25,0,0,0,0,.12A.22.22,0,0,1,6.58,11.52Zm.53-.24h0Zm6.4-2.83A8.06,8.06,0,0,0,9.4,10H9a8.28,8.28,0,0,1,4.53-1.82ZM5.74,13a.24.24,0,0,1,0-.15l.11-.22h0a.32.32,0,0,1,.15,0h.06l.2,0h0a4.06,4.06,0,0,1,.52.12l.23.07H7l.08,0h.17l0,0h.09l0,0h0l0,0h0l0,0h.1l0,0h.06l0,0h.11l0,0h.11l0,0h.06l0,0h.11l0,0h.08l0,0h0l.06,0v.27A16.78,16.78,0,0,0,6.92,13h0L6.7,13h0a3.79,3.79,0,0,0-.52-.12H5.93C5.84,12.86,5.77,12.9,5.74,13ZM8.5,22.25a8.1,8.1,0,0,0,5,2.37l0,.24a8.34,8.34,0,0,1-6.06-3.43,1.75,1.75,0,0,1,.3,0,8.71,8.71,0,0,0,.69.79l0,0Zm6-14.82V7.28h.21s0,0,0,0v.15a9.11,9.11,0,0,1,7,3.88,1.43,1.43,0,0,1,.28.16h0s.14.24.18.29a.09.09,0,0,1,0,.13s0-.05,0-.13L22,11.71h0l0,0h0a3.52,3.52,0,0,0-.42-.2h0l0,0h0l0,0h0l0,0h0l0,0h0l0,0h0l0,0h0l0,0h0l-.1,0h0l-.05,0h0l-.05,0h0l-.05,0h-.06l-.05,0h-.07l-.46-.12h0l-.08,0h0l-.07,0H20L20,11h0v-.25h0v-.33l.43.43c.34.09.65.19.91.28a8.86,8.86,0,0,0-6.53-3.45V8.2A8.33,8.33,0,0,1,19.51,10h-.38a8.08,8.08,0,0,0-4.36-1.6V10h-.24V7.44Zm7.73,4.71a.65.65,0,0,1,.19.12l.13.23a.09.09,0,0,1-.06.12s.07-.05,0-.11l-.08,0h0a6.55,6.55,0,0,0-1.07-.39h0L21,12h0l-1-.24v-.25l.13,0h.68l.36.09h.05l.11,0h0l.15,0h0l.45.15h0a3.19,3.19,0,0,1,.35.14h0Zm-8.51-4.7h0ZM5,16.33V16.1H5a.42.42,0,0,1,.14-.18,9,9,0,0,1,.63-2.76h0l0,0,0,0h0l0-.09v0l.22.08a8.75,8.75,0,0,0-.68,2.72A4.26,4.26,0,0,1,6,15.49a8.33,8.33,0,0,1,.58-2.18l.18.19c-.05.12-.1.24-.14.37h0a8,8,0,0,0-.37,1.52,13.77,13.77,0,0,1,2-.54l.3-.06V15l-.26,0H7.82l-.07,0H7.68l-.06,0h0l-.07,0h0l-.07,0h0l-.06,0h0l-.07,0h0l-.07,0h0l-.06,0h0l-.06,0h0l-.13,0H7l-.06,0h0l-.06,0h0l-.06,0h0l-.06,0h0l-.06,0h0l-.12,0h0l-.06,0h0l-.06,0h0l-.12,0h0l-.05,0h0l-.06,0h0l-.24.1H5.86l-.07,0h0l0,0h0l0,0h0l0,0H5.61l-.06,0h0l0,0h0l-.06,0h0l0,0h0a1.22,1.22,0,0,0-.23.18h0c-.05.05-.12.12-.08.17A.06.06,0,0,1,5,16.33ZM13.75,8.2v-.9a0,0,0,0,1,0,0H14s0,0,0,0V10h-.24Zm7.9,13.75a.15.15,0,0,1,0,.14l-.1.16a.2.2,0,0,1-.16.1s.17,0,.08-.24h0l0-.07a1.12,1.12,0,0,0-.1-.16h0a4.11,4.11,0,0,0-.35-.39h0l-.17-.16h0c-.35-.33-.84-.73-1.45-1.19l.11-.24h0a17.61,17.61,0,0,1,1.69,1.39h0l.08.09h0l0,0h0l0,0h0v0h0l0,0h0l0,0h0l0,0h0l0,0h0v0h0a1.15,1.15,0,0,1,.14.23h0Zm-.26.23-.06.08h0l-.06.07a9.08,9.08,0,0,1-6.5,3.29v.16h-.21a0,0,0,0,1,0,0V23.31h.24v1.34A8.13,8.13,0,0,0,20,22.3h0l.06-.06h0c.17-.17.33-.35.48-.53l.24.08a8.33,8.33,0,0,1-6,3.1v.52A8.85,8.85,0,0,0,21.22,22,1.15,1.15,0,0,1,21.4,22.18Zm1.94-5.06s0,.08,0,.13h0a9,9,0,0,1-.9,3.3.36.36,0,0,1,0,.31l-.11.17c0,.05-.05.08-.11.09a.2.2,0,0,0,.08-.24h0a.42.42,0,0,0,0-.07h0a.44.44,0,0,0-.06-.12,2.87,2.87,0,0,0-.24-.32h0l0,0h0l0,0h0c-.11-.12-.23-.24-.37-.38h0l0,0h0l-.13-.12h0l0,0h0l-.14-.13h0l0,0h0L21,19.42h0l0,0h0l-.05,0h0l-.1-.09h0l0,0h0l-.05,0h0l-.06,0h0l0,0h0l0,0h0l0,0h0l-.06,0h0l-.05,0h0l0,0h0l0,0h0l-.06,0h0l-.06,0h0l0,0h0l0,0h0l-.06,0c0-.1,0-.2,0-.3a18.92,18.92,0,0,1,1.81,1.47,8.06,8.06,0,0,0,.57-2.09h0a.28.28,0,0,0,0,0h0v-.23s0,0,0-.06a.38.38,0,0,1,0-.06v0a.31.31,0,0,0,0-.05s0,0,0,0,0,0,0,0v-.1h.23a8.31,8.31,0,0,1-.69,3,4,4,0,0,1,.37.42A8.79,8.79,0,0,0,23.11,17Zm.14-1h0v.24a.06.06,0,0,1,0,.06s0-.1-.05-.14h0l0,0,0,0a1.27,1.27,0,0,0-.24-.18h0l0,0H23l0,0H22.8l0,0h0l0,0h0l0,0h0l-.28-.11h0l-.06,0h0l-.05,0h0l-.06,0h0l-.06,0h0l-.06,0h0l-.06,0h0l-.12,0h0l-.06,0h0l-.06,0h0l-.06,0h0l-.06,0h0l-.06,0h0l-.13,0h0l-.06,0h0l-.06,0h0l-.07,0h0l-.07,0h0l-.06,0H20.9l-.06,0h-.08l-.07,0h-.49L20,15v-.26l.3.06a13.34,13.34,0,0,1,2,.55,8,8,0,0,0-.76-2.45h0l-.26-.49h0v0h.27a8.3,8.3,0,0,1,1,3.06,4.36,4.36,0,0,1,.54.26,8.79,8.79,0,0,0-.94-3.25l.3.07h0l0,.08h0a8.94,8.94,0,0,1,.85,3.28A.41.41,0,0,1,23.48,16.09Zm0,.78h0v.25s0,.06-.06.08,0-.12,0-.15l0-.05h0l0,0h0l0,0-.16-.12h0a3.35,3.35,0,0,0-.51-.26h0l-.05,0-.17-.06h0a14.41,14.41,0,0,0-2.16-.6L20,15.82v-.25l.3.06h.88l.06,0h.09l.06,0H22l0,0h0l.12,0h0l.05,0h.06l0,0h.05l.26.1h.09l0,0H23l0,0h.13a1.56,1.56,0,0,1,.25.17h0l0,0A.34.34,0,0,1,23.48,16.88ZM5.17,17h0l0,.05s-.07.1,0,.15-.06,0-.06-.08v-.25H5a.36.36,0,0,1,.1-.14l0,0h0a1.42,1.42,0,0,1,.24-.17h.17l.07,0h0l0,0h.09l.08,0h0l.27-.1h0l0,0h0l.05,0h0l.06,0h0l0,0h.75l.07,0h1l.3-.06h0v.25l-.27.05a14.3,14.3,0,0,0-2.16.6h0l-.23.09h0a3.19,3.19,0,0,0-.51.26h0A1.23,1.23,0,0,0,5.2,17h0Zm1.47,4.56a.08.08,0,0,0,0,.12.18.18,0,0,1-.11-.07l-.1-.16h0a.2.2,0,0,1,.05-.1h0a1,1,0,0,1,.18-.15h0l0,0h.05l.05,0h0L7,21H7l.1-.05h0l.22-.09.09,0h0l.09,0h0l.09,0h.06l.09,0h.06l.1,0h.07l.05,0c.36-.1.72-.19,1.07-.27l.13.23c-.4.08-.78.17-1.14.28A3.83,3.83,0,0,0,6.63,21.56ZM6.24,21a.09.09,0,0,1-.08,0l-.11-.19h0a.26.26,0,0,1,.07-.14,9,9,0,0,1-.94-3.49L5.4,17a9,9,0,0,0,.9,3.43,3,3,0,0,1,.46-.24,8.28,8.28,0,0,1-.84-3.28h.23A8.07,8.07,0,0,0,7,20.13a9.25,9.25,0,0,1,1-.33c.31-.09.63-.17,1-.25,0,.08.06.16.09.23-.34.08-.67.16-1,.26H7.94l-.06,0h0l-.05,0H7.76l-.11,0h0l-.06,0h0l-.05,0h0l-.06,0h0l-.11,0h0l-.27.11h0l-.22.1H6.81l0,0h0l-.15.08h0l0,0H6.54l-.12.08h0a.75.75,0,0,0-.18.17h0a.16.16,0,0,0,0,.07S6.21,21,6.24,21Zm7.42,4.63h0a9.07,9.07,0,0,1-6.92-3.95l0-.06h0l.22-.09a8.86,8.86,0,0,0,6.7,3.87Zm.34,0v.13s0,0,0,0h-.2a0,0,0,0,1,0,0V23.3l.24,0v2.32Z"/><path class="cls-6" d="M7.21,11.15a8.87,8.87,0,0,1,6.41-3.46l-.08.52A8.28,8.28,0,0,0,9,10H8.56v.4l-.43.43A9.08,9.08,0,0,0,7.21,11.15Zm14.94,1.34a3.89,3.89,0,0,0-.61-.06,8.3,8.3,0,0,1,1,3.06,4.36,4.36,0,0,1,.54.26A8.79,8.79,0,0,0,22.15,12.49ZM14.77,8.2A8.33,8.33,0,0,1,19.51,10H20v.39l.43.43c.34.09.65.19.91.28a8.86,8.86,0,0,0-6.53-3.45ZM7.49,21.43a2.08,2.08,0,0,0-.56.09,8.86,8.86,0,0,0,6.7,3.87l-.08-.53A8.34,8.34,0,0,1,7.49,21.43Zm7.29,3.44v.52A8.85,8.85,0,0,0,21.22,22a2.08,2.08,0,0,0-.46-.25A8.33,8.33,0,0,1,14.77,24.87Zm-8-4.66a8.28,8.28,0,0,1-.84-3.28,1.91,1.91,0,0,0-.51.1,9,9,0,0,0,.9,3.43A3,3,0,0,1,6.76,20.22Zm15.16-.33a4,4,0,0,1,.37.42A8.79,8.79,0,0,0,23.11,17a2,2,0,0,0-.51-.1A8.31,8.31,0,0,1,21.91,19.89ZM6,15.49a8.33,8.33,0,0,1,.58-2.18A1.53,1.53,0,0,0,6.11,13a8.75,8.75,0,0,0-.68,2.72A4.26,4.26,0,0,1,6,15.49Z"/><path class="cls-6" d="M22,11.71A7.33,7.33,0,0,0,20,11v.49a12.52,12.52,0,0,1,2.31.66Z"/><path class="cls-6" d="M8.14,11.56l.42-.09V11a12,12,0,0,0-1.19.33C7.59,11.38,7.84,11.46,8.14,11.56Z"/><path class="cls-7" d="M8.56,15l-.26,0a8,8,0,0,0-3.13,1.12l0,0v.48a8,8,0,0,1,3.13-1.1l.3-.06Z"/><path class="cls-7" d="M23.34,16.21a8,8,0,0,0-3.13-1.12L20,15v.52l.3.06a8,8,0,0,1,3.13,1.1v-.48Z"/><path class="cls-7" d="M9,19.79c-.34.08-.67.16-1,.26a4.13,4.13,0,0,0-1.77.83h0l.28.46a3.86,3.86,0,0,1,1.65-.78c.36-.1.72-.19,1.07-.27A4.43,4.43,0,0,1,9,19.79Z"/><rect class="cls-6" x="13.99" y="7.39" width="0.53" height="2.64"/><path class="cls-7" d="M14.25,23.32H14v2.39h.53v-2.4Z"/><path class="cls-7" d="M22.23,20.69a11,11,0,0,0-2.35-2.15,5.64,5.64,0,0,1-.4,1.37,7.62,7.62,0,0,1,2.17,2l.68-1A.45.45,0,0,0,22.23,20.69Z"/><path class="cls-7" d="M8.56,12a5.62,5.62,0,0,0-1.74-.49h0a.82.82,0,0,0-.23,0L6,12.62h.07a8.23,8.23,0,0,1,2.48.81Z"/><path d="M20,12.29v1c.62-.12,1.16-.26,1.59-.38-.08-.17-.18-.34-.27-.51a3.88,3.88,0,0,1,1.18.12h0l0,.08h0s.06-.05,0-.11l-.08,0h0A7.24,7.24,0,0,0,21,12l0,0C20.71,12.11,20.36,12.21,20,12.29Zm3.48,4.1s0-.1-.05-.14v.15h.05Zm-1.28-4.5s0-.05-.06-.12L22,11.71l.11.2Zm0,9.23h.08a.21.21,0,0,0,.08-.24Zm1.26-4h0l0,0-.06-.06a3,3,0,0,0-.73-.4l-.18-.07v.1a20.62,20.62,0,0,1-2.42.55v.52c0,.16,0,.32,0,.48a22.1,22.1,0,0,0,2.37-.5c0-.22.05-.45.06-.68a1.89,1.89,0,0,1,1,.19s0,.08,0,.13l.1-.06a.1.1,0,0,0,0-.1Zm-2,5h0v0h0l0-.07a3,3,0,0,0-.62-.71h0a18.25,18.25,0,0,0-1.44-1.18,5.75,5.75,0,0,1-1.09,1.51,5.81,5.81,0,0,1-1.8,1.22,21.52,21.52,0,0,0,2.38-.33c.24,0,.65-.12,1.11-.23.19-.19.38-.39.55-.6a1.79,1.79,0,0,1,.88.48l-.13.17h.12s.13,0,.09-.2Z"/><path d="M6.43,11.81a.41.41,0,0,1,0-.11.21.21,0,0,1,.18-.18ZM5.13,16.4v-.15s-.08.1-.05.14Zm8.62-9h-.09l-.15,1,.24,0Zm-8,5.74.1-.24a1.6,1.6,0,0,1,.84.55,5.27,5.27,0,0,0-.19.5c.32.28.73.59,1.24,1l.48-.1.3-.06V13.7C8,13.42,7.41,13.21,7,13.06H6.92a3.28,3.28,0,0,0-.92-.2H5.89c-.07,0-.12.06-.15.19v0a.14.14,0,0,0,0,0A.87.87,0,0,0,5.79,13.18Zm2.77,4.45v-.51a20.59,20.59,0,0,1-2.42-.55v-.1l-.27.11-.22.1h0A1.92,1.92,0,0,0,5.2,17l0,0,0,0h0l.09.05v-.13a1.87,1.87,0,0,1,1-.19c0,.23,0,.45.06.68a21.3,21.3,0,0,0,2.38.5A4.48,4.48,0,0,1,8.56,17.63Zm5.1,8h.09v-1l-.24,0Zm-3.42-4-.06-.06c-.86-.13-1.74-.29-2.65-.5l0,0a2.13,2.13,0,0,0-.87.52.08.08,0,0,0,0,.12h0l.13.05-.08-.13a2,2,0,0,1,1.09-.16,7.21,7.21,0,0,0,.7.81,24,24,0,0,0,3.48.58A5.94,5.94,0,0,1,10.24,21.64Zm-4-.76a.16.16,0,0,0,0,.07s0,0,0,0H6.3Z"/><path class="cls-8" d="M14.23,23.4a5.78,5.78,0,0,1-5.75-5.64V10H20v7.76a5.78,5.78,0,0,1-5.76,5.64Z"/><path class="cls-3" d="M8.86,10.38v7.38a5.37,5.37,0,0,0,10.74,0V10.38Zm8.57,7.38a3.2,3.2,0,0,1-6.39,0v-5.2h6.39Z"/><path class="cls-7" d="M10.68,12.07h0l-.05-.49a.12.12,0,0,0,.12-.12.12.12,0,0,0-.12-.12h0v-.22h.05a0,0,0,0,0,0,0v-.15h-.07V11h-.1v-.08h-.08V11h-.1v-.08h-.07v.15a0,0,0,0,0,0,0h.05v.22h-.14l0-.47h0s0,0,0,0v-.15h-.07v.07H10v-.07H9.94v.07h-.1v-.07H9.77v.15s0,0,0,0h0l0,.47H9.66v-.22H9.7a0,0,0,0,0,0,0v-.15H9.66V11h-.1v-.08H9.48V11h-.1v-.08H9.3v.15a0,0,0,0,0,0,0h0v.22h0a.12.12,0,0,0,0,.24l0,.49h0a.12.12,0,0,0-.12.12.12.12,0,0,0,.12.12h1.4a.12.12,0,0,0,.12-.12A.12.12,0,0,0,10.68,12.07Zm-1,0a.52.52,0,0,1,.33-.51h0a.52.52,0,0,1,.33.51Z"/><path class="cls-7" d="M15,12.07h0l0-.49a.12.12,0,0,0,.11-.12.12.12,0,0,0-.12-.12h0v-.22h.06s0,0,0,0v-.15h-.07V11h-.11v-.08h-.07V11h-.1v-.08H14.5v.15s0,0,0,0h.06v.22h-.13l0-.47h0s0,0,0,0v-.15h-.07v.07h-.1v-.07h-.07v.07h-.1v-.07H14v.15l0,0h0l0,.47h-.14l0-.22H14s0,0,0,0v-.15h-.08V11h-.1v-.08h-.07V11h-.11v-.08h-.07v.15a0,0,0,0,0,0,0h.05v.22h0a.12.12,0,0,0-.12.12.12.12,0,0,0,.11.12l-.05.49h0a.12.12,0,0,0-.12.12.12.12,0,0,0,.12.12H15a.12.12,0,0,0,.12-.12A.12.12,0,0,0,15,12.07Zm-1,0a.52.52,0,0,1,.33-.51h0a.53.53,0,0,1,.33.51Z"/><path class="cls-7" d="M19.19,12.07h0l-.05-.49a.12.12,0,0,0,.11-.12.12.12,0,0,0-.12-.12h0v-.22h.05a0,0,0,0,0,0,0v-.15h-.07V11H19v-.08H18.9V11h-.1v-.08h-.07v.15a0,0,0,0,0,0,0h.05v.22h-.13l0-.47h0s0,0,0,0v-.15h-.07v.07h-.1v-.07h-.07v.07h-.1v-.07h-.07v.15l0,0h0l0,.47h-.14v-.22h.05s0,0,0,0v-.15h-.08V11h-.1v-.08H18V11h-.1v-.08h-.07v.15a0,0,0,0,0,0,0h.05v.22h0a.12.12,0,0,0,0,.24l0,.49h0a.12.12,0,0,0-.12.12.12.12,0,0,0,.12.12h1.4a.12.12,0,0,0,.12-.12A.12.12,0,0,0,19.19,12.07Zm-1,0a.52.52,0,0,1,.33-.51h0a.53.53,0,0,1,.33.51Z"/><path class="cls-7" d="M10.68,16.48h0L10.6,16a.12.12,0,0,0,.12-.12.12.12,0,0,0-.12-.12h0v-.22h.05a0,0,0,0,0,0,0v-.15h-.07v.08h-.1v-.08h-.08v.08h-.1v-.08h-.07v.15a0,0,0,0,0,0,0h.05v.22h-.14l0-.47h0a0,0,0,0,0,0,0V15.1h-.07v.08H10V15.1H9.94v.08h-.1V15.1H9.77v.15a0,0,0,0,0,0,0h0l0,.47H9.66v-.22H9.7a0,0,0,0,0,0,0v-.15H9.66v.08h-.1v-.08H9.48v.08h-.1v-.08H9.3v.15a0,0,0,0,0,0,0h0v.22h0a.12.12,0,0,0,0,.24l0,.49h0a.12.12,0,0,0-.12.12.12.12,0,0,0,.12.11h1.4a.12.12,0,0,0,.12-.11A.12.12,0,0,0,10.68,16.48Zm-1,0A.52.52,0,0,1,10,16h0a.52.52,0,0,1,.33.51Z"/><path class="cls-7" d="M19.19,16.48h0L19.11,16a.12.12,0,0,0,.11-.12.12.12,0,0,0-.12-.12h0v-.22h.05a0,0,0,0,0,0,0v-.15h-.07v.08H19v-.08H18.9v.08h-.1v-.08h-.07v.15a0,0,0,0,0,0,0h.05v.22h-.13l0-.47h0a0,0,0,0,0,0,0V15.1h-.07v.08h-.1V15.1h-.07v.08h-.1V15.1h-.07v.15a0,0,0,0,0,0,0h0l0,.47h-.14v-.22h.05s0,0,0,0v-.15h-.08v.08h-.1v-.08H18v.08h-.1v-.08h-.07v.15a0,0,0,0,0,0,0h.05v.22h0a.12.12,0,0,0-.12.12.12.12,0,0,0,.11.12l0,.49h0a.12.12,0,0,0-.12.12.11.11,0,0,0,.12.11h1.4a.11.11,0,0,0,.12-.11A.12.12,0,0,0,19.19,16.48Zm-1,0a.52.52,0,0,1,.33-.51h0a.53.53,0,0,1,.33.51Z"/><path class="cls-7" d="M11.92,20.32l0,0L11.53,20a.12.12,0,0,0,0-.17.13.13,0,0,0-.17,0h0l-.16-.14h0l0,0s0,0,0,0l-.11-.11-.05,0,.05.06-.07.07L11,19.68l-.06.05.06.06-.08.07,0-.05-.05.05.1.11h0l0,0h0l.14.16-.1.09-.35-.31,0,0a0,0,0,0,0,0,0l-.11-.11-.06.05.06.06-.07.07-.05-.05-.05.05.05.05-.07.08-.05-.06L10.3,20l.11.11h0l0,0,.31.35-.09.1-.17-.14h0l0,0a0,0,0,0,0,0,0l-.11-.11,0,.05.05.05-.07.08-.05-.06-.06.06.06.05-.07.07-.06-.05-.05,0,.11.11h0l0,0h0l.14.16h0a.12.12,0,0,0,0,.17.13.13,0,0,0,.17,0l.31.38,0,0a.12.12,0,0,0,0,.17.12.12,0,0,0,.17,0l1-1a.12.12,0,0,0,0-.17A.12.12,0,0,0,11.92,20.32Zm-.73.74a.52.52,0,0,1-.12-.59h0a.51.51,0,0,1,.59.12Z"/><path class="cls-7" d="M16.44,20.33a.12.12,0,0,0,0,.17l1,1a.12.12,0,0,0,.17,0,.12.12,0,0,0,0-.17l0,0,.31-.38a.13.13,0,0,0,.16,0,.12.12,0,0,0,0-.17h0l.14-.16h0l0,0h0l.12-.12-.05,0-.05.05-.07-.07.05-.05-.05-.06-.05.06-.07-.08.05-.05,0-.05-.11.11a0,0,0,0,0,0,0l0,0h0l-.17.14-.09-.1.31-.35,0,0h0l.11-.11,0-.05-.05.06-.07-.08.05-.05-.05-.05-.05.05-.08-.07.06-.06-.05-.05-.11.11s0,0,0,0l0,0-.35.31-.09-.09.14-.16h0l0,0h0l.12-.12-.05-.05-.05.05-.07-.07.05-.06-.05-.05-.05.06-.07-.07.06-.06-.05,0-.11.11a0,0,0,0,0,0,0l0,0h0l-.16.14h0a.13.13,0,0,0-.17,0A.12.12,0,0,0,17,20l-.38.31v0A.12.12,0,0,0,16.44,20.33Zm.43.26a.5.5,0,0,1,.59-.12h0a.53.53,0,0,1-.12.59Z"/><path class="cls-9" d="M14.62,19.22a.14.14,0,0,0,0,.28.14.14,0,0,0,.14-.15.14.14,0,0,0-.14-.14"/><path class="cls-9" d="M13.86,19.23a.14.14,0,0,0,0,.28.14.14,0,1,0,0-.28"/><path class="cls-10" d="M14.23,15.11a.73.73,0,0,0,.71-.76v-1H13.52v1A.73.73,0,0,0,14.23,15.11Z"/><circle class="cls-8" cx="13.87" cy="13.74" r="0.16"/><circle class="cls-8" cx="14.23" cy="14.11" r="0.16"/><circle class="cls-8" cx="14.59" cy="14.47" r="0.16"/><circle class="cls-8" cx="14.59" cy="13.74" r="0.16"/><circle class="cls-8" cx="13.87" cy="14.47" r="0.16"/><path class="cls-10" d="M14.23,17.56a.73.73,0,0,0,.71-.76v-1H13.52v1A.73.73,0,0,0,14.23,17.56Z"/><circle class="cls-8" cx="13.87" cy="16.19" r="0.16"/><circle class="cls-8" cx="14.23" cy="16.55" r="0.16"/><circle class="cls-8" cx="14.59" cy="16.92" r="0.16"/><circle class="cls-8" cx="14.59" cy="16.19" r="0.16"/><circle class="cls-8" cx="13.87" cy="16.92" r="0.16"/><path class="cls-10" d="M12.28,17.56A.73.73,0,0,0,13,16.8v-1H11.57v1A.73.73,0,0,0,12.28,17.56Z"/><circle class="cls-8" cx="11.91" cy="16.19" r="0.16"/><circle class="cls-8" cx="12.28" cy="16.55" r="0.16"/><circle class="cls-8" cx="12.64" cy="16.92" r="0.16"/><circle class="cls-8" cx="12.64" cy="16.19" r="0.16"/><circle class="cls-8" cx="11.91" cy="16.92" r="0.16"/><path class="cls-10" d="M16.19,17.56a.73.73,0,0,0,.71-.76v-1H15.48v1A.73.73,0,0,0,16.19,17.56Z"/><circle class="cls-8" cx="15.83" cy="16.19" r="0.16"/><circle class="cls-8" cx="16.19" cy="16.55" r="0.16"/><circle class="cls-8" cx="16.55" cy="16.92" r="0.16"/><circle class="cls-8" cx="16.55" cy="16.19" r="0.16"/><circle class="cls-8" cx="15.83" cy="16.92" r="0.16"/><path class="cls-10" d="M14.23,20a.73.73,0,0,0,.71-.76v-1H13.52v1A.73.73,0,0,0,14.23,20Z"/><circle class="cls-8" cx="13.87" cy="18.64" r="0.16"/><circle class="cls-8" cx="14.23" cy="19" r="0.16"/><circle class="cls-8" cx="14.59" cy="19.36" r="0.16"/><circle class="cls-8" cx="14.59" cy="18.64" r="0.16"/><circle class="cls-8" cx="13.87" cy="19.36" r="0.16"/><path class="cls-11" d="M74,54.22"/><path class="cls-11" d="M48.21,57.76a2.06,2.06,0,0,1-.2.9,2.12,2.12,0,0,1-.54.71,2.56,2.56,0,0,1-.85.47,3.38,3.38,0,0,1-1.09.17,6.21,6.21,0,0,1-1.6-.18l.14-1.28a3.75,3.75,0,0,0,.71.22,3.94,3.94,0,0,0,.8.08,1.87,1.87,0,0,0,.45-.05,1.13,1.13,0,0,0,.37-.16.78.78,0,0,0,.25-.28.86.86,0,0,0,.09-.42.67.67,0,0,0-.22-.52,2,2,0,0,0-.54-.34l-.7-.28a3.16,3.16,0,0,1-.7-.36,1.87,1.87,0,0,1-.54-.57,1.74,1.74,0,0,1-.22-.92,2,2,0,0,1,.18-.85,1.79,1.79,0,0,1,.51-.66,2.48,2.48,0,0,1,.83-.43,3.72,3.72,0,0,1,1.12-.15,5.86,5.86,0,0,1,.62,0q.33,0,.63.1l-.12,1.16A4.3,4.3,0,0,0,47,54a3.56,3.56,0,0,0-.61-.05,1.33,1.33,0,0,0-.86.23.75.75,0,0,0-.28.6.63.63,0,0,0,.22.5,2.27,2.27,0,0,0,.55.34l.71.29a3.14,3.14,0,0,1,.71.38,2,2,0,0,1,.55.58A1.66,1.66,0,0,1,48.21,57.76Z"/><path class="cls-11" d="M53.55,59.89l-.48-1.42H50.45L50,59.89H48.62L51,53h1.51L55,59.89ZM52,55.44q-.09-.26-.16-.49t-.12-.46h0l-.13.46-.15.49-.69,2h2Z"/><path class="cls-11" d="M61.2,57.19a2.74,2.74,0,0,1-.75,2.12,3,3,0,0,1-2.13.69A3.7,3.7,0,0,1,57,59.79a2,2,0,0,1-.82-.55,1.94,1.94,0,0,1-.41-.81,3.94,3.94,0,0,1-.11-1V53H57v4.46A2.73,2.73,0,0,0,57,58a1.13,1.13,0,0,0,.23.47,1,1,0,0,0,.44.31,2,2,0,0,0,.71.11,1.47,1.47,0,0,0,1.11-.37,1.81,1.81,0,0,0,.34-1.25V53H61.2ZM57.9,52.53l-.22-.72L59.81,51l.3.95Z"/><path class="cls-11" d="M68.65,56.3a4.14,4.14,0,0,1-.28,1.57A3.06,3.06,0,0,1,67.59,59a3.34,3.34,0,0,1-1.21.69,4.92,4.92,0,0,1-1.54.23l-1,0-.91,0V53l1,0,1.24,0a5.3,5.3,0,0,1,1.45.19,2.75,2.75,0,0,1,1.11.6,2.68,2.68,0,0,1,.7,1.05A4.36,4.36,0,0,1,68.65,56.3Zm-1.43.1a3.87,3.87,0,0,0-.12-1,1.94,1.94,0,0,0-.38-.75,1.61,1.61,0,0,0-.67-.47,2.8,2.8,0,0,0-1-.16h-.44l-.37,0v4.68l.33,0,.4,0a2.81,2.81,0,0,0,.9-.14,1.83,1.83,0,0,0,.71-.43,2,2,0,0,0,.47-.75A3,3,0,0,0,67.23,56.4Z"/><path class="cls-11" d="M69.89,59.89V53h3.77v1.12H71.22v1.7h2.31v1.1H71.22v1.88h2.44v1.14Z"/><path class="cls-11" d="M51.42,17.17,47.95,11.6h-.32v4.06a7,7,0,0,1,1.32.23v1.28h-5V15.91a7.36,7.36,0,0,1,.8-.15l.86-.1V5.8l-.86-.1a7.4,7.4,0,0,1-.8-.15V4.29h2l.85,0,1,0H49a8.15,8.15,0,0,1,1.82.19,4.18,4.18,0,0,1,1.43.6,2.72,2.72,0,0,1,.93,1.08,3.69,3.69,0,0,1,.32,1.62A3.45,3.45,0,0,1,53.25,9a3.11,3.11,0,0,1-.71,1,4,4,0,0,1-1.08.74,4.87,4.87,0,0,1-1.36.41q.21.25.4.52l.36.54,2.22,3.34.65.1.73.13v1.3ZM50.66,6.39a3.29,3.29,0,0,0-2-.48h-.58l-.5,0V10l.41,0h.6a3,3,0,0,0,2-.58,1.91,1.91,0,0,0,.71-1.56A1.79,1.79,0,0,0,50.66,6.39Z"/><path class="cls-11" d="M55.33,17.17V15.91a7.36,7.36,0,0,1,.8-.15l.86-.1V5.78l-.86-.09a7.58,7.58,0,0,1-.8-.15V4.29h8.53V7.36H62.36q-.08-.4-.13-.77t-.1-.68H59.06V9.79h2.46q0-.32.1-.62a3.83,3.83,0,0,1,.15-.56h1.3V12.5h-1.3a3.66,3.66,0,0,1-.15-.58q-.06-.32-.1-.6H59.06v4.18h3.09q0-.34.1-.73t.15-.8H63.9v3.21Z"/><path class="cls-11" d="M74.83,9.82a4,4,0,0,1-1,1.38,4.84,4.84,0,0,1-1.58.92,6,6,0,0,1-2.05.33h-.46a3.21,3.21,0,0,1-.5,0v3.24l.86.1a7.39,7.39,0,0,1,.8.15v1.26H65.51V15.91a7.36,7.36,0,0,1,.8-.15l.86-.1V5.8l-.86-.1a7.4,7.4,0,0,1-.8-.15V4.29h2.07l.87,0,1,0h1a5.26,5.26,0,0,1,3.52,1,3.54,3.54,0,0,1,1.21,2.83A4.26,4.26,0,0,1,74.83,9.82ZM72.37,6.53a2.94,2.94,0,0,0-2.07-.62h-.55a3.67,3.67,0,0,0-.52,0v4.71l.46.06.46,0a3.23,3.23,0,0,0,2.1-.68A2.23,2.23,0,0,0,73,8.26,2.26,2.26,0,0,0,72.37,6.53Z"/><path class="cls-11" d="M87.37,5.8v6.45A5.08,5.08,0,0,1,86,16.1a5.44,5.44,0,0,1-3.88,1.26A6.78,6.78,0,0,1,79.68,17a3.66,3.66,0,0,1-1.49-1,3.56,3.56,0,0,1-.73-1.46,7.21,7.21,0,0,1-.2-1.72v-7l-.65-.1L76,5.57V4.29h4.77V5.57a5,5,0,0,1-.72.14l-.73.09v6.83a5.49,5.49,0,0,0,.12,1.2,2.28,2.28,0,0,0,.45,1,2.14,2.14,0,0,0,.91.63,4.08,4.08,0,0,0,1.48.23,4.75,4.75,0,0,0,1.36-.17,2.11,2.11,0,0,0,.94-.56,2.43,2.43,0,0,0,.55-1,5.58,5.58,0,0,0,.18-1.53V5.8l-.74-.09a4.39,4.39,0,0,1-.71-.14V4.29h4.77V5.57A9.9,9.9,0,0,1,87.37,5.8ZM82,3.37l-.76-1.16,3-2.1.92,1.39Z"/><path class="cls-11" d="M99.9,14.6a3.38,3.38,0,0,1-.81,1.28,4.37,4.37,0,0,1-1.55,1,6.8,6.8,0,0,1-2.46.38l-1.51,0q-.92,0-2,0H89.93V15.91a7.36,7.36,0,0,1,.8-.15l.86-.1V5.8l-.86-.1a7.4,7.4,0,0,1-.8-.15V4.29h1.6l1.82,0,2.26,0a5.19,5.19,0,0,1,3.19.82,2.74,2.74,0,0,1,1.07,2.31,2.92,2.92,0,0,1-.6,1.79,3.28,3.28,0,0,1-1.59,1.15v0a3.18,3.18,0,0,1,1.1.4,2.67,2.67,0,0,1,.76.69,3,3,0,0,1,.45.88,3.18,3.18,0,0,1,.15,1A4.09,4.09,0,0,1,99.9,14.6ZM97.58,7a1.28,1.28,0,0,0-.4-.56A2,2,0,0,0,96.43,6a4.27,4.27,0,0,0-1.15-.13h-.84l-.78,0V9.75l.51,0h.59A3.65,3.65,0,0,0,97,9.21a1.8,1.8,0,0,0,.74-1.53A2.17,2.17,0,0,0,97.58,7Zm.12,5.42a1.85,1.85,0,0,0-.65-.62,3,3,0,0,0-1-.34,7,7,0,0,0-1.26-.11H93.65v4.1a9.08,9.08,0,0,0,1.51.1,3,3,0,0,0,2.11-.62,2.06,2.06,0,0,0,.68-1.59A1.73,1.73,0,0,0,97.71,12.38Z"/><path class="cls-11" d="M101.65,17.17V15.91a7.35,7.35,0,0,1,.8-.15l.86-.1V5.8l-.86-.1a7.4,7.4,0,0,1-.8-.15V4.29H107V5.55a7.44,7.44,0,0,1-.8.15l-.86.1v9.66h2.92q.1-.74.27-1.66H110v3.38Z"/><path class="cls-11" d="M110.79,17.17V15.91a7.35,7.35,0,0,1,.8-.15l.86-.1V5.8l-.86-.1a7.4,7.4,0,0,1-.8-.15V4.29h5.38V5.55a7.44,7.44,0,0,1-.8.15l-.86.1v9.87l.86.1a7.39,7.39,0,0,1,.8.15v1.26Z"/><path class="cls-11" d="M125.37,7.92q-.1-.48-.14-.89t-.09-.79a5.39,5.39,0,0,0-.83-.15q-.39,0-.81,0a3.57,3.57,0,0,0-1.63.35,3.32,3.32,0,0,0-1.16,1,4.24,4.24,0,0,0-.7,1.49,7.44,7.44,0,0,0-.23,1.9,7.46,7.46,0,0,0,.24,2,3.74,3.74,0,0,0,.75,1.47,3.28,3.28,0,0,0,1.32.92,5.27,5.27,0,0,0,1.93.31,7.28,7.28,0,0,0,1.5-.16,7.07,7.07,0,0,0,1.38-.43l.13,1.91a12.5,12.5,0,0,1-1.68.43,10,10,0,0,1-1.81.16A5.88,5.88,0,0,1,119,15.69a6.53,6.53,0,0,1-1.52-4.59,9.55,9.55,0,0,1,.39-2.81A6,6,0,0,1,119,6.1a5.38,5.38,0,0,1,2-1.43,7.31,7.31,0,0,1,2.87-.52,12,12,0,0,1,1.49.1,15,15,0,0,1,1.51.27v3.4Z"/><path class="cls-11" d="M136.17,17.17V15.91q.32-.08.71-.13l.74-.1L137,13.87h-5.1l-.65,1.81.74.1q.38.06.71.13v1.26H128V15.91a4,4,0,0,1,.54-.12l.56-.09,4.1-11.41h2.5l4.16,11.41.56.09a4.06,4.06,0,0,1,.54.12v1.26ZM135,8.35q-.19-.5-.32-1t-.25-1h0q-.1.5-.25,1t-.34,1l-1.39,3.84h4Z"/><path class="cls-11" d="M53.23,28.17a4,4,0,0,1-1,1.38,4.84,4.84,0,0,1-1.58.92,6,6,0,0,1-2.05.33h-.46a3.21,3.21,0,0,1-.5,0V34l.86.1a7.39,7.39,0,0,1,.8.15v1.26H43.9V34.26a7.36,7.36,0,0,1,.8-.15l.86-.1V24.15l-.86-.1a7.44,7.44,0,0,1-.8-.15V22.64H46l.87,0,1,0h1a5.26,5.26,0,0,1,3.52,1,3.54,3.54,0,0,1,1.21,2.83A4.26,4.26,0,0,1,53.23,28.17Zm-2.46-3.29a2.94,2.94,0,0,0-2.07-.62h-.55a3.64,3.64,0,0,0-.52,0V29l.46.06.46,0a3.23,3.23,0,0,0,2.1-.68,2.23,2.23,0,0,0,.78-1.8A2.26,2.26,0,0,0,50.76,24.88Z"/><path class="cls-11" d="M66.13,31.78a6.37,6.37,0,0,1-1.33,2.14,5.62,5.62,0,0,1-2,1.34,6.33,6.33,0,0,1-2.4.46,6.56,6.56,0,0,1-2.56-.46,4.78,4.78,0,0,1-1.81-1.31,5.5,5.5,0,0,1-1.08-2,9.43,9.43,0,0,1-.35-2.68,7.9,7.9,0,0,1,.49-2.86,6.26,6.26,0,0,1,1.33-2.13,5.68,5.68,0,0,1,2-1.33,6.32,6.32,0,0,1,2.4-.46,6.7,6.7,0,0,1,2.37.4A4.79,4.79,0,0,1,65,24.06a5.57,5.57,0,0,1,1.18,2,8.67,8.67,0,0,1,.42,2.83A7.9,7.9,0,0,1,66.13,31.78Zm-2.7-6.27a3.37,3.37,0,0,0-2.81-1.25,3.61,3.61,0,0,0-1.44.3,3.34,3.34,0,0,0-1.21.89,4.56,4.56,0,0,0-.83,1.47,6,6,0,0,0-.32,2,8.13,8.13,0,0,0,.23,2,4.53,4.53,0,0,0,.69,1.55,3.15,3.15,0,0,0,1.17,1,3.7,3.7,0,0,0,1.67.35,3.62,3.62,0,0,0,1.4-.29,3.5,3.5,0,0,0,1.24-.88,4.38,4.38,0,0,0,.87-1.48,6.08,6.08,0,0,0,.33-2.09A5.71,5.71,0,0,0,63.43,25.51Z"/><path class="cls-11" d="M75.35,35.52l-3.47-5.57h-.32V34a7,7,0,0,1,1.32.23v1.28h-5V34.26a7.36,7.36,0,0,1,.8-.15l.86-.1V24.15l-.86-.1a7.44,7.44,0,0,1-.8-.15V22.64h2l.85,0,1,0h1.15a8.16,8.16,0,0,1,1.82.19,4.17,4.17,0,0,1,1.43.6,2.73,2.73,0,0,1,.93,1.08,3.69,3.69,0,0,1,.32,1.62,3.45,3.45,0,0,1-.25,1.33,3.11,3.11,0,0,1-.71,1,4,4,0,0,1-1.08.74,4.87,4.87,0,0,1-1.36.41q.21.25.4.52l.36.54L77,34l.65.1.73.13v1.3Zm-.76-10.78a3.29,3.29,0,0,0-2-.48h-.58l-.5,0v4.08l.41,0h.6a3,3,0,0,0,2-.58,1.91,1.91,0,0,0,.71-1.56A1.79,1.79,0,0,0,74.59,24.74Z"/><path class="cls-11" d="M87.85,26.06q-.1-.5-.16-.92t-.11-.78H85.26V34l.86.09a7.66,7.66,0,0,1,.8.15v1.26H81.54V34.26a7.63,7.63,0,0,1,.8-.15L83.2,34V24.36H80.85q0,.36-.1.78t-.15.92H79.11V22.64H89.34v3.42Z"/><path class="cls-11" d="M101.57,24.15V30.6a5.08,5.08,0,0,1-1.33,3.85,5.44,5.44,0,0,1-3.88,1.26,6.78,6.78,0,0,1-2.48-.38,3.66,3.66,0,0,1-1.49-1,3.56,3.56,0,0,1-.73-1.46,7.21,7.21,0,0,1-.2-1.72v-7l-.65-.1-.61-.13V22.64H95v1.28a5.08,5.08,0,0,1-.72.14l-.73.09V31a5.49,5.49,0,0,0,.12,1.2,2.28,2.28,0,0,0,.45,1,2.14,2.14,0,0,0,.91.63,4.08,4.08,0,0,0,1.48.23,4.75,4.75,0,0,0,1.36-.17,2.11,2.11,0,0,0,.94-.56,2.43,2.43,0,0,0,.55-1,5.58,5.58,0,0,0,.18-1.53V24.15l-.74-.09a4.45,4.45,0,0,1-.71-.14V22.64h4.77v1.28A9.9,9.9,0,0,1,101.57,24.15Z"/><path class="cls-11" d="M115.44,30.28l-.6.09v4.56a11,11,0,0,1-2.1.58,12.71,12.71,0,0,1-2.23.2,7.72,7.72,0,0,1-2.68-.44,5.63,5.63,0,0,1-2-1.25,5.43,5.43,0,0,1-1.28-2,7.5,7.5,0,0,1-.45-2.67,7.68,7.68,0,0,1,.49-2.78,6.11,6.11,0,0,1,3.6-3.61,8.08,8.08,0,0,1,2.95-.51,12.38,12.38,0,0,1,1.77.13q.87.13,1.77.34v3.24H113.1q-.1-.44-.15-.85t-.1-.79q-.48-.11-1-.18a6.79,6.79,0,0,0-.94-.07,5.31,5.31,0,0,0-1.82.3,4,4,0,0,0-1.47.92,4.37,4.37,0,0,0-1,1.53,5.69,5.69,0,0,0-.36,2.11,4.77,4.77,0,0,0,1.2,3.48,4.37,4.37,0,0,0,3.28,1.23,6.9,6.9,0,0,0,1.05-.08,5.26,5.26,0,0,0,.94-.23V30.39l-.86-.1a5.71,5.71,0,0,1-.76-.15V28.88H116v1.28A4.77,4.77,0,0,1,115.44,30.28Z"/><path class="cls-11" d="M128.37,24.15V30.6A5.08,5.08,0,0,1,127,34.45a5.43,5.43,0,0,1-3.88,1.26,6.78,6.78,0,0,1-2.48-.38,3.66,3.66,0,0,1-1.49-1,3.55,3.55,0,0,1-.73-1.46,7.21,7.21,0,0,1-.2-1.72v-7l-.65-.1-.61-.13V22.64h4.77v1.28a5.07,5.07,0,0,1-.72.14l-.73.09V31a5.49,5.49,0,0,0,.12,1.2,2.28,2.28,0,0,0,.45,1,2.14,2.14,0,0,0,.91.63,4.08,4.08,0,0,0,1.48.23,4.75,4.75,0,0,0,1.35-.17,2.11,2.11,0,0,0,.94-.56,2.42,2.42,0,0,0,.55-1,5.58,5.58,0,0,0,.18-1.53V24.15l-.74-.09a4.46,4.46,0,0,1-.71-.14V22.64h4.77v1.28A9.89,9.89,0,0,1,128.37,24.15Z"/><path class="cls-11" d="M130.92,35.52V34.26a7.35,7.35,0,0,1,.8-.15l.86-.1V24.13l-.86-.09a7.54,7.54,0,0,1-.8-.15V22.64h8.53v3.07h-1.51q-.08-.4-.13-.77t-.1-.68h-3.07v3.87h2.46q0-.32.1-.62a3.85,3.85,0,0,1,.15-.56h1.3v3.89h-1.3a3.68,3.68,0,0,1-.15-.58q-.06-.32-.1-.6h-2.46v4.18h3.09q0-.34.1-.73t.15-.8h1.51v3.21Z"/><path class="cls-11" d="M149.07,33.27a3.78,3.78,0,0,1-1,1.29,4.53,4.53,0,0,1-1.54.85,6.35,6.35,0,0,1-2,.3,11.22,11.22,0,0,1-2.82-.33V32.14h1.53q.08.44.13.85t.1.77l.57.1a4.56,4.56,0,0,0,.57,0,4.41,4.41,0,0,0,1-.11,2.54,2.54,0,0,0,.83-.35,1.68,1.68,0,0,0,.55-.62,1.9,1.9,0,0,0,.2-.9,1.39,1.39,0,0,0-.43-1.07,3.91,3.91,0,0,0-1.06-.69q-.63-.29-1.38-.54a6,6,0,0,1-1.38-.68,3.81,3.81,0,0,1-1.06-1.06,3,3,0,0,1-.43-1.69,3.63,3.63,0,0,1,.32-1.51,3.28,3.28,0,0,1,.92-1.19,4.37,4.37,0,0,1,1.47-.77,6.51,6.51,0,0,1,2-.28,12.34,12.34,0,0,1,1.31.07q.62.07,1.27.2v3.11H147.2a7.89,7.89,0,0,1-.14-.82q0-.4-.09-.74l-.41-.07-.48,0a2.76,2.76,0,0,0-1.81.51,1.63,1.63,0,0,0-.6,1.31,1.34,1.34,0,0,0,.43,1,4,4,0,0,0,1.07.68q.64.29,1.38.56a7.19,7.19,0,0,1,1.38.69A3.7,3.7,0,0,1,149,30a2.87,2.87,0,0,1,.43,1.64A3.87,3.87,0,0,1,149.07,33.27Z"/><path class="cls-11" d="M158.23,35.52V34.26q.32-.08.71-.13l.74-.1L159,32.22h-5.1L153.27,34l.74.1q.38.06.71.13v1.26h-4.64V34.26a4,4,0,0,1,.54-.12l.56-.09,4.1-11.41h2.5L162,34.05l.56.09a4,4,0,0,1,.54.12v1.26ZM157,26.7q-.19-.5-.32-1t-.25-1h0q-.1.5-.25,1t-.34,1l-1.39,3.84h4Z"/></g></g></svg>